<svg xmlns="http://www.w3.org/2000/svg" viewBox="0 0 64 64" fill="none">
  <!-- Center pillar -->
  <rect x="30" y="16" width="4" height="32" rx="1" fill="currentColor"/>
  <!-- Base -->
  <rect x="18" y="48" width="28" height="4" rx="2" fill="currentColor"/>
  <!-- Base pedestal -->
  <rect x="26" y="44" width="12" height="6" rx="1" fill="currentColor" opacity="0.8"/>
  <!-- Beam -->
  <rect x="6" y="14" width="52" height="3" rx="1.5" fill="currentColor"/>
  <!-- Top triangle -->
  <polygon points="32,8 27,16 37,16" fill="currentColor"/>
  <!-- Left chain -->
  <line x1="10" y1="17" x2="10" y2="28" stroke="currentColor" stroke-width="2" stroke-linecap="round"/>
  <!-- Right chain -->
  <line x1="54" y1="17" x2="54" y2="28" stroke="currentColor" stroke-width="2" stroke-linecap="round"/>
  <!-- Left pan -->
  <path d="M2 30 Q6 26 10 28 Q14 26 18 30 Q14 33 10 32 Q6 33 2 30Z" fill="currentColor" opacity="0.85"/>
  <!-- Right pan -->
  <path d="M46 30 Q50 26 54 28 Q58 26 62 30 Q58 33 54 32 Q50 33 46 30Z" fill="currentColor" opacity="0.85"/>
</svg>
